<svg width="694" height="534" viewBox="0 0 694 534" fill="none" xmlns="http://www.w3.org/2000/svg">
<rect width="694" height="534" fill="white"/>
<circle cx="347.5" cy="262.5" r="262.5" fill="#333232"/>
<circle cx="347" cy="258" r="225" fill="white"/>
<g filter="url(#filter0_i_0_1)">
<path d="M347 483L693.41 534H0.589844L347 483Z" fill="#1D50D2"/>
</g>
<path d="M7.4188 533.5L347 483.505L686.581 533.5H7.4188Z" stroke="black"/>
<path d="M347 233L353.735 253.384H375.532L357.898 265.982L364.634 286.366L347 273.768L329.366 286.366L336.102 265.982L318.468 253.384H340.265L347 233Z" fill="#1D50D2"/>
<path d="M228 233L234.735 253.384H256.532L238.898 265.982L245.634 286.366L228 273.768L210.366 286.366L217.102 265.982L199.468 253.384H221.265L228 233Z" fill="#1D50D2"/>
<path d="M288 233L294.735 253.384H316.532L298.898 265.982L305.634 286.366L288 273.768L270.366 286.366L277.102 265.982L259.468 253.384H281.265L288 233Z" fill="#1D50D2"/>
<path d="M407 233L413.735 253.384H435.532L417.898 265.982L424.634 286.366L407 273.768L389.366 286.366L396.102 265.982L378.468 253.384H400.265L407 233Z" fill="#1D50D2"/>
<path d="M467 233L473.735 253.384H495.532L477.898 265.982L484.634 286.366L467 273.768L449.366 286.366L456.102 265.982L438.468 253.384H460.265L467 233Z" fill="#1D50D2"/>
<path d="M317.125 168C316.083 168 315.562 167.427 315.562 166.281V124.906C315.562 123.76 316.083 123.188 317.125 123.188H342.594C343.74 123.188 344.312 123.656 344.312 124.594V126.906C344.312 127.844 343.74 128.312 342.594 128.312H321.562V143.125H339.906C341.052 143.125 341.625 143.594 341.625 144.531V146.844C341.625 147.781 341.052 148.25 339.906 148.25H321.562V166.281C321.562 167.427 321.042 168 320 168H317.125ZM352.531 168C351.594 168 351.125 167.531 351.125 166.594V136.594C351.125 135.656 351.594 135.188 352.531 135.188H355.219C356.156 135.188 356.625 135.656 356.625 136.594V166.594C356.625 167.531 356.156 168 355.219 168H352.531ZM352.531 129.25C351.594 129.25 351.125 128.781 351.125 127.844V125.156C351.125 124.219 351.594 123.75 352.531 123.75H355.219C356.156 123.75 356.625 124.219 356.625 125.156V127.844C356.625 128.781 356.156 129.25 355.219 129.25H352.531ZM363.906 139.312C362.969 139.312 362.5 138.948 362.5 138.219V136.281C362.5 135.552 362.969 135.188 363.906 135.188H367.594V132.375C367.594 131.958 367.698 131.562 367.906 131.188L370.094 127.219C370.49 126.49 370.812 126.125 371.062 126.125H372.156C372.781 126.125 373.094 126.49 373.094 127.219V135.188H379.75C380.688 135.188 381.156 135.552 381.156 136.281V138.219C381.156 138.948 380.688 139.312 379.75 139.312H373.094V159.219C373.094 161.406 373.417 162.833 374.062 163.5C374.729 164.146 375.521 164.469 376.438 164.469C377.146 164.469 377.99 164.26 378.969 163.844C379.969 163.427 380.656 163.073 381.031 162.781C381.406 162.49 381.698 162.583 381.906 163.062L382.938 165.469C383.104 165.885 382.979 166.219 382.562 166.469C381.75 166.948 380.562 167.417 379 167.875C377.438 168.312 375.875 168.531 374.312 168.531C372.146 168.531 370.479 167.75 369.312 166.188C368.167 164.625 367.594 162.417 367.594 159.562V139.312H363.906Z" fill="#333232"/>
<path d="M265.406 418C264.365 418 263.844 417.427 263.844 416.281V374.906C263.844 373.76 264.365 373.188 265.406 373.188H290.875C292.021 373.188 292.594 373.656 292.594 374.594V376.906C292.594 377.844 292.021 378.312 290.875 378.312H269.844V393.125H288.188C289.333 393.125 289.906 393.594 289.906 394.531V396.844C289.906 397.781 289.333 398.25 288.188 398.25H269.844V416.281C269.844 417.427 269.323 418 268.281 418H265.406ZM300.812 418C299.875 418 299.406 417.531 299.406 416.594V386.594C299.406 385.656 299.875 385.188 300.812 385.188H303.438C304.375 385.188 304.844 385.656 304.844 386.594V390.344H304.969C305.969 388.469 307.146 387.052 308.5 386.094C309.854 385.135 311.542 384.656 313.562 384.656C314.896 384.656 315.833 384.771 316.375 385C316.854 385.188 317.031 385.5 316.906 385.938L316.188 388.5C316.083 388.875 315.812 389.021 315.375 388.938C314.646 388.792 313.958 388.719 313.312 388.719C310.875 388.719 308.865 389.823 307.281 392.031C305.698 394.219 304.906 397.208 304.906 401V416.594C304.906 417.531 304.438 418 303.5 418H300.812ZM323.375 418C322.438 418 321.969 417.531 321.969 416.594V386.594C321.969 385.656 322.438 385.188 323.375 385.188H326.062C327 385.188 327.469 385.656 327.469 386.594V416.594C327.469 417.531 327 418 326.062 418H323.375ZM323.375 379.25C322.438 379.25 321.969 378.781 321.969 377.844V375.156C321.969 374.219 322.438 373.75 323.375 373.75H326.062C327 373.75 327.469 374.219 327.469 375.156V377.844C327.469 378.781 327 379.25 326.062 379.25H323.375ZM334.562 401.594C334.562 396.427 335.854 392.312 338.438 389.25C341.021 386.188 344.719 384.656 349.531 384.656C353.531 384.656 356.844 386.062 359.469 388.875C362.115 391.667 363.438 396.135 363.438 402.281C363.438 403.219 363.01 403.688 362.156 403.688H340.375C340.729 407.708 341.812 410.51 343.625 412.094C345.438 413.656 347.49 414.438 349.781 414.438C352.198 414.438 354.052 414.031 355.344 413.219C356.635 412.406 357.583 411.604 358.188 410.812C358.854 409.938 359.5 409.771 360.125 410.312L361.969 411.906C362.448 412.323 362.448 412.896 361.969 413.625C361.573 414.229 360.438 415.198 358.562 416.531C356.708 417.865 353.781 418.531 349.781 418.531C344.573 418.531 340.729 417 338.25 413.938C335.792 410.875 334.562 406.76 334.562 401.594ZM340.25 399.625H357.906C357.823 396.708 357.073 394.156 355.656 391.969C354.24 389.76 352.156 388.656 349.406 388.656C346.99 388.656 344.938 389.469 343.25 391.094C341.562 392.698 340.562 395.542 340.25 399.625ZM372.062 418C371.125 418 370.656 417.531 370.656 416.594V386.594C370.656 385.656 371.125 385.188 372.062 385.188H374.688C375.625 385.188 376.094 385.656 376.094 386.594V389.094H376.219C377.573 387.594 379.031 386.479 380.594 385.75C382.156 385.021 384.104 384.656 386.438 384.656C390.229 384.656 392.948 385.729 394.594 387.875C396.26 390 397.094 392.917 397.094 396.625V416.594C397.094 417.531 396.625 418 395.688 418H393C392.062 418 391.594 417.531 391.594 416.594V398.125C391.594 394.042 390.917 391.458 389.562 390.375C388.208 389.271 386.49 388.719 384.406 388.719C381.698 388.719 379.646 389.531 378.25 391.156C376.854 392.76 376.156 395.521 376.156 399.438V416.594C376.156 417.531 375.688 418 374.75 418H372.062ZM404.125 401.594C404.125 397.115 405.208 393.177 407.375 389.781C409.542 386.365 412.708 384.656 416.875 384.656C419.271 384.656 421.188 385.052 422.625 385.844C424.062 386.635 425.354 387.719 426.5 389.094H426.562C426.521 388.469 426.5 387.833 426.5 387.188V373.281C426.5 372.344 426.969 371.875 427.906 371.875H430.594C431.531 371.875 432 372.344 432 373.281V416.594C432 417.531 431.531 418 430.594 418H427.969C427.219 418 426.812 417.531 426.75 416.594L426.562 414.094H426.5C425.354 415.469 424.062 416.552 422.625 417.344C421.188 418.135 419.271 418.531 416.875 418.531C412.708 418.531 409.542 416.833 407.375 413.438C405.208 410.021 404.125 406.073 404.125 401.594ZM409.938 401.594C409.938 405.427 410.594 408.531 411.906 410.906C413.24 413.281 415.49 414.469 418.656 414.469C420.906 414.469 422.771 413.708 424.25 412.188C425.75 410.646 426.5 408.312 426.5 405.188V398C426.5 394.875 425.75 392.552 424.25 391.031C422.771 389.49 420.906 388.719 418.656 388.719C415.49 388.719 413.24 389.906 411.906 392.281C410.594 394.656 409.938 397.76 409.938 401.594Z" fill="#333232"/>
<defs>
<filter id="filter0_i_0_1" x="0.589844" y="483" width="692.82" height="55" filterUnits="userSpaceOnUse" color-interpolation-filters="sRGB">
<feFlood flood-opacity="0" result="BackgroundImageFix"/>
<feBlend mode="normal" in="SourceGraphic" in2="BackgroundImageFix" result="shape"/>
<feColorMatrix in="SourceAlpha" type="matrix" values="0 0 0 0 0 0 0 0 0 0 0 0 0 0 0 0 0 0 127 0" result="hardAlpha"/>
<feOffset dy="4"/>
<feGaussianBlur stdDeviation="2"/>
<feComposite in2="hardAlpha" operator="arithmetic" k2="-1" k3="1"/>
<feColorMatrix type="matrix" values="0 0 0 0 0 0 0 0 0 0 0 0 0 0 0 0 0 0 0.25 0"/>
<feBlend mode="normal" in2="shape" result="effect1_innerShadow_0_1"/>
</filter>
</defs>
</svg>
