<svg width="436" height="179" viewBox="0 0 436 179" fill="none" xmlns="http://www.w3.org/2000/svg">
<rect width="436" height="179" fill="white"/>
<rect width="436" height="30" fill="#9FCBEB"/>
<path d="M0 149H436V179H0V149Z" fill="#9FCBEB"/>
<path d="M75.5 67L80.5516 82.5471H96.8988L83.6736 92.1558L88.7252 107.703L75.5 98.0942L62.2748 107.703L67.3264 92.1558L54.1012 82.5471H70.4484L75.5 67Z" fill="#FC7A7A"/>
<path d="M164.5 67L169.552 82.5471H185.899L172.674 92.1558L177.725 107.703L164.5 98.0942L151.275 107.703L156.326 92.1558L143.101 82.5471H159.448L164.5 67Z" fill="#FC7A7A"/>
<path d="M266.5 67L271.552 82.5471H287.899L274.674 92.1558L279.725 107.703L266.5 98.0942L253.275 107.703L258.326 92.1558L245.101 82.5471H261.448L266.5 67Z" fill="#FC7A7A"/>
<path d="M359.5 67L364.552 82.5471H380.899L367.674 92.1558L372.725 107.703L359.5 98.0942L346.275 107.703L351.326 92.1558L338.101 82.5471H354.448L359.5 67Z" fill="#FC7A7A"/>
</svg>
